<svg xmlns="http://www.w3.org/2000/svg" xmlns:xlink="http://www.w3.org/1999/xlink" width="2560" zoomAndPan="magnify" viewBox="0 0 1920 1919.999921" height="2560" preserveAspectRatio="xMidYMid meet" version="1.0"><defs><g/><clipPath id="c92da6e3cf"><path d="M 194.859375 644.933594 L 1796.914062 644.933594 L 1796.914062 1275.066406 L 194.859375 1275.066406 Z M 194.859375 644.933594 " clip-rule="nonzero"/></clipPath><clipPath id="586455b569"><path d="M 284.859375 644.933594 L 1706.914062 644.933594 C 1730.785156 644.933594 1753.675781 654.414062 1770.554688 671.292969 C 1787.433594 688.171875 1796.914062 711.0625 1796.914062 734.933594 L 1796.914062 1185.066406 C 1796.914062 1208.9375 1787.433594 1231.828125 1770.554688 1248.707031 C 1753.675781 1265.585938 1730.785156 1275.066406 1706.914062 1275.066406 L 284.859375 1275.066406 C 260.992188 1275.066406 238.097656 1265.585938 221.21875 1248.707031 C 204.34375 1231.828125 194.859375 1208.9375 194.859375 1185.066406 L 194.859375 734.933594 C 194.859375 711.0625 204.34375 688.171875 221.21875 671.292969 C 238.097656 654.414062 260.992188 644.933594 284.859375 644.933594 Z M 284.859375 644.933594 " clip-rule="nonzero"/></clipPath><clipPath id="6efe4c2aae"><path d="M 211.574219 656.960938 L 1780.199219 656.960938 L 1780.199219 1259.875 L 211.574219 1259.875 Z M 211.574219 656.960938 " clip-rule="nonzero"/></clipPath><clipPath id="c2d3ee108b"><path d="M 301.574219 656.960938 L 1690.199219 656.960938 C 1739.90625 656.960938 1780.199219 697.253906 1780.199219 746.960938 L 1780.199219 1169.875 C 1780.199219 1219.582031 1739.90625 1259.875 1690.199219 1259.875 L 301.574219 1259.875 C 251.871094 1259.875 211.574219 1219.582031 211.574219 1169.875 L 211.574219 746.960938 C 211.574219 697.253906 251.871094 656.960938 301.574219 656.960938 Z M 301.574219 656.960938 " clip-rule="nonzero"/></clipPath><clipPath id="c5cf8980a7"><path d="M 227.886719 670.417969 L 1763.886719 670.417969 L 1763.886719 1246.417969 L 227.886719 1246.417969 Z M 227.886719 670.417969 " clip-rule="nonzero"/></clipPath><clipPath id="18aa099ed7"><path d="M 317.886719 670.417969 L 1673.886719 670.417969 C 1723.59375 670.417969 1763.886719 710.710938 1763.886719 760.417969 L 1763.886719 1156.417969 C 1763.886719 1206.121094 1723.59375 1246.417969 1673.886719 1246.417969 L 317.886719 1246.417969 C 268.183594 1246.417969 227.886719 1206.121094 227.886719 1156.417969 L 227.886719 760.417969 C 227.886719 710.710938 268.183594 670.417969 317.886719 670.417969 Z M 317.886719 670.417969 " clip-rule="nonzero"/></clipPath></defs><g clip-path="url(#c92da6e3cf)"><g clip-path="url(#586455b569)"><path fill="#000000" d="M 194.859375 644.933594 L 1796.914062 644.933594 L 1796.914062 1275.066406 L 194.859375 1275.066406 Z M 194.859375 644.933594 " fill-opacity="1" fill-rule="nonzero"/></g></g><g clip-path="url(#6efe4c2aae)"><g clip-path="url(#c2d3ee108b)"><path fill="#ffffff" d="M 211.574219 656.960938 L 1780.199219 656.960938 L 1780.199219 1259.875 L 211.574219 1259.875 Z M 211.574219 656.960938 " fill-opacity="1" fill-rule="nonzero"/></g></g><g clip-path="url(#c5cf8980a7)"><g clip-path="url(#18aa099ed7)"><path fill="#000000" d="M 227.886719 670.417969 L 1763.886719 670.417969 L 1763.886719 1246.417969 L 227.886719 1246.417969 Z M 227.886719 670.417969 " fill-opacity="1" fill-rule="nonzero"/></g></g><g fill="#ffffff" fill-opacity="1"><g transform="translate(329.266769, 1131.291938)"><g><path d="M 313.96875 -99.125 C 313.96875 -65.425781 301.472656 -39.664062 276.484375 -21.84375 C 251.503906 -4.019531 214.84375 4.890625 166.5 4.890625 C 122.394531 4.890625 87.804688 -2.921875 62.734375 -18.546875 C 37.671875 -34.179688 21.5625 -57.863281 14.40625 -89.59375 L 83.984375 -101.078125 C 88.703125 -82.847656 97.894531 -69.625 111.5625 -61.40625 C 125.238281 -53.1875 144.203125 -49.078125 168.453125 -49.078125 C 218.742188 -49.078125 243.890625 -64.375 243.890625 -94.96875 C 243.890625 -104.738281 241 -112.796875 235.21875 -119.140625 C 229.445312 -125.484375 221.3125 -130.769531 210.8125 -135 C 200.3125 -139.238281 180.171875 -144.367188 150.390625 -150.390625 C 124.671875 -156.410156 106.765625 -161.25 96.671875 -164.90625 C 86.585938 -168.570312 77.472656 -172.882812 69.328125 -177.84375 C 61.191406 -182.8125 54.273438 -188.796875 48.578125 -195.796875 C 42.890625 -202.796875 38.457031 -211.015625 35.28125 -220.453125 C 32.101562 -229.898438 30.515625 -240.726562 30.515625 -252.9375 C 30.515625 -284.019531 42.191406 -307.820312 65.546875 -324.34375 C 88.910156 -340.863281 122.890625 -349.125 167.484375 -349.125 C 210.128906 -349.125 242.148438 -342.445312 263.546875 -329.09375 C 284.953125 -315.75 298.75 -293.695312 304.9375 -262.9375 L 235.109375 -253.421875 C 231.523438 -268.234375 224.238281 -279.378906 213.25 -286.859375 C 202.269531 -294.347656 186.523438 -298.09375 166.015625 -298.09375 C 122.398438 -298.09375 100.59375 -284.421875 100.59375 -257.078125 C 100.59375 -248.128906 102.910156 -240.804688 107.546875 -235.109375 C 112.179688 -229.410156 119.054688 -224.566406 128.171875 -220.578125 C 137.285156 -216.585938 155.757812 -211.582031 183.59375 -205.5625 C 216.632812 -198.5625 240.273438 -192.09375 254.515625 -186.15625 C 268.753906 -180.21875 280.023438 -173.300781 288.328125 -165.40625 C 296.628906 -157.507812 302.976562 -148.066406 307.375 -137.078125 C 311.769531 -126.097656 313.96875 -113.445312 313.96875 -99.125 Z M 313.96875 -99.125 "/></g></g><g transform="translate(662.759486, 1131.291938)"><g/></g><g transform="translate(801.674094, 1131.291938)"><g><path d="M 319.09375 0 L 319.09375 -208.5 C 319.09375 -213.21875 319.132812 -217.9375 319.21875 -222.65625 C 319.300781 -227.375 320.070312 -247.640625 321.53125 -283.453125 C 309.976562 -239.671875 301.4375 -209.148438 295.90625 -191.890625 L 233.890625 0 L 182.625 0 L 120.609375 -191.890625 L 94.484375 -283.453125 C 96.429688 -245.691406 97.40625 -220.707031 97.40625 -208.5 L 97.40625 0 L 33.453125 0 L 33.453125 -344 L 129.890625 -344 L 191.40625 -151.609375 L 196.78125 -133.0625 L 208.5 -86.921875 L 223.875 -142.09375 L 287.109375 -344 L 383.0625 -344 L 383.0625 0 Z M 319.09375 0 "/></g></g><g transform="translate(1218.173781, 1131.291938)"><g/></g><g transform="translate(1357.088389, 1131.291938)"><g><path d="M 33.453125 0 L 33.453125 -344 L 105.46875 -344 L 105.46875 -55.671875 L 290.046875 -55.671875 L 290.046875 0 Z M 33.453125 0 "/></g></g></g></svg>